<?xml version="1.0" encoding="UTF-8" standalone="no"?>
<!DOCTYPE svg PUBLIC "-//W3C//DTD SVG 1.1//EN" "http://www.w3.org/Graphics/SVG/1.1/DTD/svg11.dtd">
<svg width="100%" height="100%" viewBox="0 0 320 378" version="1.1" xmlns="http://www.w3.org/2000/svg" xmlns:xlink="http://www.w3.org/1999/xlink" xml:space="preserve" xmlns:serif="http://www.serif.com/" style="fill-rule:evenodd;clip-rule:evenodd;stroke-linejoin:round;stroke-miterlimit:2;">
    <g id="Image" transform="matrix(1.33333,0,0,1.33333,0,0)">
        <path id="path1" d="M144.079,270.667L143.255,269.333L144.588,269.333L145.412,270.667L144.079,270.667ZM146,270.712L146,269.333L150.222,269.333L149.753,269.803L149.283,270.273L146,270.712ZM139.333,269.333L139.333,267.537L136.549,266.295L125.667,267.294L120.333,266.916L115,266.538L111,266.114L108.333,265.691L105.667,265.268L104.333,264.727L103,264.185L100.667,263.47L98.333,262.756L95.333,261.932L92.333,261.109L91,260.8L87.667,259.656L84.333,258.512L78.767,255.923L73.201,253.333L72.617,253.333L63,246.649L61.767,245.825L60.534,245L51.796,237L46.231,231.459L40.667,225.917L40.667,225.208L37.74,221.359L34.813,217.511L34.399,216.206L33.985,214.902L31.657,212.333L30.919,210.667L30.18,209L30.333,208.107L27.549,205L26.715,202.667L25.882,200.333L23.87,196.574L24.623,195.821L23.312,194.154L22,192.487L22,190.079L20.897,189.397L18.767,181.667L17.145,175.667L16.856,174L16.566,172.333L16.118,169L15.415,164.667L14.711,160.333L14.543,141.667L14.82,140.333L14.564,137.892L15.335,133.112L16.106,128.333L16.318,127L16.531,125.667L16.972,123L17.414,120.333L18.074,117L18.735,113.667L20.243,107.667L22.121,104.018L24,100.37L24,99.26L26.807,93L28.934,88.333L31.357,84.333L33.779,80.333L34.333,78.855L39.667,72.431L42.601,69.817L43.439,66L45.83,66L49.559,62L53.289,58L54.591,58L56.41,55.403L65,49.736L67.667,47.65L70.333,45.565L79.333,41.157L88.333,36.75L91.667,35.886L95,35.022L95.667,34.269L98.553,34.091L104.333,32.143L116.333,30.627L142.333,31.231L146,31.989L149.667,32.746L152.333,33.886L155.333,34.638L158.333,35.391L159.667,35.751L163.459,36.882L167.252,38.013L168.353,39.115L169.455,40.217L173.171,42.145L176.888,44.073L183,47.549L187.159,51.426L189.382,51.752L203.882,66L205.91,66L206.675,68.41L212.333,73.845L213.632,76.422L214.931,79L216.025,80.333L217.12,81.667L221.816,90.333L225.382,96.677L227.633,103.172L229.885,109.667L230.58,113.667L232.282,120.333L233.984,127L234,129.733L235.299,131.032L235.689,141.683L236.08,152.333L236.096,153.667L235.274,165.667L234.867,167.333L234.46,169L234.338,170.404L234.217,171.809L233.754,173.013L233.292,174.218L232.536,179L231.799,180.2L231.592,182.5L231.386,184.801L230.252,186.333L228.495,193.526L224.667,200.802L224.638,202.333L222.03,205.667L222.001,208L220.819,208L219.744,210.167L218.668,212.333L216.676,215.667L214.685,219L214.214,220L213.742,221L212.334,222.532L208.334,227.519L207.501,228.379L206.668,229.238L206.668,230.667L205.628,230.667L200.164,236L194.701,241.333L194,241.333L191.429,243.667L190.548,244.351L189.667,245.036L187.333,246.653L185,248.269L184.667,248.651L184.333,249.033L177.667,252.333L175.676,253.667L173.685,255L172.1,255.833L170.514,256.667L168.778,256.667L168.536,257.391L168.295,258.116L164.647,259.392L161,260.668L159,261.419L158.872,261L157.787,261.9L156.702,262.801L152.333,263.116L141.667,265.561L139.667,267.493L141.333,268.111L141.333,269.333L139.333,269.333ZM102.965,257.276L102.575,256.645L101.312,257.425L101.702,258.057L102.092,258.688L102.724,258.298L103.355,257.908L102.965,257.276ZM116.667,257.333L116.667,254.079L115.333,253.255L115.333,248L117.046,248L119.288,244.204L119.053,241.936L118.818,239.667L118.179,238.036L117.541,236.406L111.787,235.32L106.034,234.234L105.413,234.617L104.793,235.001L104.432,241L104.008,241.667L103.584,242.333L102.817,245.667L102.05,249L101.323,254.111L102.043,255.275L103.919,254.555L104.358,252.444L104.798,250.333L106.586,247.503L108.46,247.838L110.333,248.174L112.667,250.207L112.667,253.461L113.81,255.397L114.954,257.333L116.667,257.333ZM108.873,245.333L106.667,242.895L106.667,238.667L108.333,238.48L111,238.641L113.667,238.801L115.333,240.163L115.333,245.333L108.873,245.333ZM136.434,257.333L139.552,254.015L139.324,241.473L137.356,236.764L134.89,235.981L125.245,236.27L124.967,236.721L124.688,237.171L124.565,255.962L124.988,256.648L125.412,257.333L136.434,257.333ZM129,254.673L127.53,252.933L127.311,241.667L128.333,240.131L130.618,239.772L132.902,239.413L134.284,240.139L135.667,240.866L136.646,242.333L136.667,252.453L135.059,253.185L133.452,253.917L129,254.673ZM96.701,252.233L96.333,230.459L93.702,230.074L84.481,239.667L82.513,242.667L81.238,242.667L79.333,244.571L79.333,246.667L81.934,246.667L82.55,245.565L83.167,244.463L86.417,244.907L89.667,245.352L90.111,246.667L91.562,246.667L94,248.873L94,251.733L95.6,253.333L96.15,252.783L96.701,252.233ZM91,243.243L88,241.796L88,239.988L90.065,237.827L92.13,235.667L92.49,235.776L92.851,235.886L93.415,236.776L93.98,237.667L94,241.224L93.595,242.279L93.191,243.333L92.095,243.288L91,243.243ZM154.051,252.167L154.101,251L153.911,241.999L154.757,239.333L157.098,239.333L163.486,248.682L164.106,249.065L164.725,249.448L165.69,248.648L166.654,247.847L166.354,246.424L166.055,245L165.347,239.154L164.764,238.41L164.181,237.667L164.713,234.333L164.877,232.333L164.667,226.667L162.111,226.667L161.809,227.5L161.508,228.333L162.196,235.667L164.028,236.749L163.241,238.022L162.621,237.638L162,237.255L162,238.759L159.112,238.333L157.542,235.667L155.972,233L155.581,232.167L155.191,231.333L152.809,231.333L151.837,233.667L151.763,241.948L149.678,242.748L148.506,241.3L147.333,239.852L147.327,237.667L145.749,235.694L144.17,233.721L142.743,234.36L141.315,235L144.715,240L143.933,240L145.633,242.23L147.334,244.459L147.334,246.415L148.693,247.874L150.053,249.333L149.243,249.333L152.091,253.333L154,253.333L154.051,252.167ZM175.41,242.833L175.487,241.667L175.235,239.249L176.3,237.625L177.364,236L179.17,236L179.994,235.007L180.818,234.015L182,234.745L182,233.307L183.833,233.724L185.667,234.142L188.963,234.333L189.197,233.167L189.431,232L187.515,232L184.333,228.871L177.347,224L176.22,224L174.437,221.999L172.654,219.997L169.894,221.667L170.586,226.333L170.882,227.667L171.178,229L171.715,233.333L172.252,237.667L172.5,238.667L172.667,244L175.333,244L175.41,242.833ZM174.405,232.945L174,231.891L174,226.667L176.472,226.667L179.913,229.856L179.151,232.769L177.532,233.384L175.913,234L174.809,234L174.405,232.945ZM74.66,242.004L75.898,241.341L79.594,233.667L81.085,231.664L82.575,229.661L84.205,225.667L84.549,224L82.019,224L80.254,226.667L78.489,229.333L76.003,229.333L71.029,224.641L72.903,221.667L74.945,218.139L73.142,215.966L71.904,217.087L70.667,218.207L70.667,220.042L68.667,220.809L68.667,222.06L65.333,227L62,231.94L62,234L63.706,234L65.667,231.113L68,228.667L70.404,228.667L76.043,232.814L75.601,234.24L75.158,235.667L72.667,239.206L72.667,242.667L73.421,242.667L74.66,242.004ZM194.279,228.262L195.333,227.857L195.333,226.735L192,223.139L192,221.513L193.436,219.688L194.872,217.862L200.267,218.725L202.073,220.224L205,217.274L203.333,215.985L201.667,214.696L199.305,214.667L198.565,212.833L197.826,211L196.746,208.746L195.667,206.491L193.333,205.473L191,204.455L188.473,204.598L184.333,209.646L183.293,210.697L182.252,211.748L181.177,213.283L180.102,214.817L185,219.718L188.875,224.192L192.75,228.667L193.224,228.667L194.279,228.262ZM188.012,218.174L187.024,217.786L186.179,216.94L185.333,216.095L185.333,213.436L186.992,211.464L188.651,209.493L191.247,208.814L194,210.742L194,214.176L191.619,216.421L189.238,218.667L189,218.561L188.012,218.174ZM131.769,226.221L134.333,226.607L139.667,225.234L145,223.86L147.333,223.351L149.667,222.843L157.308,219.914L158.079,218.667L160.524,218.667L160.9,217.688L161.275,216.709L165.815,214.812L168.667,212.37L168.667,210.954L172.333,208.689L176.772,204.591L181.386,198.841L186,193.09L186,192.071L192.666,181.667L192.667,178.889L193.083,178.473L193.498,178.057L195.173,173.195L196.847,168.333L196.984,164.863L197.121,161.392L198.655,159.544L197.963,158.852L198.632,157.092L199.3,155.333L201.857,155.333L202.209,154.418L202.56,153.502L199.514,151.871L199.055,147.436L198.595,143L198.35,138.667L198.105,134.333L196.621,127.823L197.338,127.106L196.464,125.72L195.591,124.333L193.868,118.333L192.982,117.333L192.095,116.333L191.881,115L190.59,112.333L189.298,109.667L187.357,106.227L185.417,102.788L183.137,99.801L180.858,96.815L179,94.651L170.244,85.333L168.667,85.333L168.667,82.83L167.833,82.157L167,81.484L161.333,78.687L155.667,75.889L151.667,74.187L148.333,72.734L145.114,71.69L141.896,70.647L137.114,69.928L132.333,69.21L125,69.305L117.667,69.401L110.333,70.591L106.333,71.455L102.333,73.22L94.987,75.787L85.467,81.667L80.451,85.667L76.972,88.673L73.492,91.68L67.747,99L66.667,99.444L66.667,101.238L65.833,102.143L65,103.048L62.8,107L61.152,110.333L59.504,113.667L58.13,117L56.755,120.333L56.025,125.745L55.049,127.706L54.074,129.667L53.285,134.333L52.533,136.803L52.343,148.902L52.153,161L52.734,166.333L53.315,171.667L54.141,176.333L55.913,177.75L58.615,183.042L61.316,188.333L61.333,190L62.649,190L63.566,192.167L64.484,194.333L78.43,208.333L80.653,210.04L89.667,215.647L90.107,216.655L94.487,218.733L95.882,220.033L97.278,221.333L99.733,221.333L100.367,221.919L101,222.506L103.667,223.361L106.333,224.217L107.667,224.432L109,224.647L115,226.063L127,227.011L129.385,226.616L131.769,226.221ZM127.667,209L119.713,208.592L118.017,207.184L116.079,207.928L111.471,204.8L110.138,204.377L108.804,203.954L106.569,201.736L104.333,199.518L101.474,196.044L100.022,192.856L98.571,189.667L97.628,187.667L98.093,184.667L111.91,184.667L112.366,186.167L112.821,187.667L114.443,189.831L116.065,191.996L118.974,193.322L121.884,194.647L125.766,194.88L129.649,195.113L131.441,193.321L132.767,194.141L138.333,187.867L139.058,185L146.149,184.811L153.241,184.622L150.977,192.65L149.822,193.999L148.667,195.349L148.667,197.511L142.135,203.941L138.667,204.811L138.667,205.786L136.833,206.651L135,207.516L131.333,208.258L127.667,209ZM88.518,178.063L84.704,176.995L81.985,174.667L79.822,174.667L76.607,171.401L73.393,168.135L72.522,164.667L71.536,164.667L69.43,159.667L68.532,155.667L68.7,145.763L69.424,144.89L70.149,144.017L69.406,142.079L72.533,137.471L73.38,134.804L75.646,132.569L77.912,130.333L80.333,128.131L83.408,126.501L86.482,124.87L89.667,123.905L97.667,124.078L100.333,124.818L103,125.558L103.633,126.112L104.267,126.667L106.667,126.667L106.667,128.667L107.961,128.667L114.639,135.523L117.291,141.001L117.425,147L117.544,153L117.169,158.56L116.793,164.12L114.73,166.688L112.667,169.255L112.667,170.012L109.113,174L107.4,174L106.333,175.827L103.667,177.157L101,178.487L92.333,179.131L88.518,178.063ZM101.161,162.278L104.217,159.222L104.783,155.778L105.35,152.333L104.928,149.667L104.507,147L102.058,142.168L99.978,140.417L97.897,138.666L96.246,138.252L94.594,137.837L89.876,138.603L85.337,142.065L84.012,144.974L82.686,147.884L82.453,151.766L82.22,155.649L84.012,157.441L83.193,158.767L86.329,161.55L89.466,164.333L90.9,164.767L92.333,165.2L98.105,165.333L101.161,162.278ZM128.935,153.412L129.268,127.491L129.706,125.745L130.145,124L133,123.998L138.45,124.76L143.899,125.521L143.774,129L143.887,134.095L144,139.191L144.912,139.541L145.825,139.891L152.333,135.301L157.667,130.617L160,128.653L162.333,126.688L166.333,126.682L173.667,128.65L178.514,128.666L180.424,129.662L182.333,130.658L180.514,130.666L170.333,140.422L163.333,144.805L163.333,145.999L161.333,145.999L161.333,147.339L166.849,162.333L167.948,163.333L169.046,164.333L173.136,170.999L174.89,175.666L176.023,177.164L175.618,178.22L175.213,179.275L173.106,178.838L171,178.4L158.102,178.333L156.106,174L154.11,169.666L152.388,165.815L150.667,161.963L150.667,160.194L147.397,156.666L145.476,156.666L145.025,157.833L144.573,159L145.043,169.166L145.512,179.333L128.601,179.333L128.935,153.412ZM46.992,209.32L46.665,208.792L44.015,209.485L44.341,210.013L44.668,210.542L47.318,209.848L46.992,209.32ZM212.081,207.165L213.83,204.333L215.005,201.167L216.181,198L217.333,198L217.333,196.047L216.044,195.357L214.754,194.667L213.778,194.667L214.196,195.085L214.615,195.503L212.904,198.585L211.194,201.667L210.077,202.722L208.961,203.778L206.537,203.778L205.076,200.571L205.818,200.112L206.561,199.653L207.433,196.181L206.426,195.794L205.419,195.408L201.466,199.451L198.667,197.953L198.667,196.088L200.419,192.048L202.171,188.009L201.337,187.004L200.503,186L199.625,186L197.692,190.333L195.759,194.667L194.881,194.667L193.235,198.279L194.451,199.13L195.667,199.982L198.813,202.696L204.667,206.127L204.667,207.333L206.37,207.333L208.654,210L210.333,209.998L212.081,207.165ZM37.472,206.75L36.772,205L36.667,207.556L37.069,207.153L37.472,206.75ZM52,205.333L52,203.333L50.745,203.333L50.036,204.481L50.889,205.333L52,205.333ZM57.281,200.833L57.228,199.667L56.553,201.342L55.989,200.993L55.425,200.645L55.007,201.322L54.588,202L57.333,202L57.281,200.833ZM48.253,199.03L47.897,198.103L46.948,197.739L46,197.375L46,198.018L47.6,200.58L48.608,199.957L48.253,199.03ZM221.631,193.276L221.241,192.645L220.61,193.035L219.978,193.425L220.369,194.057L220.759,194.688L221.39,194.298L222.022,193.908L221.631,193.276ZM37.333,184.37L43.667,182.089L45.887,181.211L48.107,180.334L47.489,176.333L46.309,172.333L45.128,168.333L44.64,167.776L44.151,167.218L36.333,168.557L29.829,170.379L27.658,172.579L25.488,174.779L25.858,176.223L26.229,177.667L27.686,180.333L29.143,183L30.025,186.667L30.513,186.66L31,186.652L37.333,184.37ZM32.259,182.115L30.547,180.052L30.195,177.426L29.842,174.801L33,172.749L41.934,171.115L43.897,172.744L45.257,176.647L44.248,177.657L43.238,178.667L41.927,178.667L38.963,180.017L36,181.367L32.259,182.115ZM197.324,182.422L197.315,181.667L196.499,178.62L194.667,182.152L194.667,183.875L196,183.527L197.333,183.178L197.324,182.422ZM228.06,181.371L227.121,180.79L226.239,181.128L225.358,181.467L226.797,184.156L227.898,183.054L229,181.952L228.06,181.371ZM25.153,178.931L24.75,178.528L23,179.228L25.556,179.333L25.153,178.931ZM210.967,178.613L210.521,177.892L208.997,178.275L207.472,178.657L207.062,177.587L206.651,176.517L204.667,178.163L204.667,179.333L211.412,179.333L210.967,178.613ZM215.916,174.824L216.545,173.648L214.721,171.152L213.898,172.957L213.076,174.762L215,175.98L215.286,176L215.916,174.824ZM223.687,173.367L223.241,172.645L222.549,173.072L221.858,173.5L223.628,174.594L223.881,174.341L224.134,174.089L223.687,173.367ZM218,167.191L218,165.444L217.167,165.154L216.333,164.863L214.691,165.467L215.356,166.708L216.02,167.95L218,167.191ZM222.333,167.333L222.745,166.667L220.588,166.667L221.412,168L221.921,168L222.333,167.333ZM211.255,165.333L212.037,164.067L209.421,162.667L206.333,162.772L207.321,163.16L208.31,163.548L210.095,165.333L211.255,165.333ZM35.667,162.974L38.333,162.817L42.667,161.833L42.769,161L43.439,155L42.566,147.965L39.46,145.929L37.23,145.876L35,145.822L31.333,146.173L27.667,146.524L24,147.478L24,149.412L23.47,149.085L22.94,148.757L23.108,152.879L23.275,157L24.199,159.65L25.122,162.299L31,163.867L33,163.131L35.667,162.974ZM26.509,157.451L25.397,155.568L26.197,152.333L27.41,151.161L28.624,149.988L38.73,149.796L40.214,151.281L40.333,156.96L38,158.115L35.667,159.269L27.621,159.333L26.509,157.451ZM219.333,162L219.333,157.921L218.667,158.333L218,158.745L218,162L219.333,162ZM40.333,144.19L40.101,141.715L43.852,138.13L44.598,131.667L45.015,129.981L45.432,128.296L44.017,127.016L42.603,125.735L40.667,125.333L39.833,125.13L39,124.927L33.667,123.172L33.033,122.586L32.4,122L26,122L26,125.25L28.333,125.228L38.333,127.433L41.492,129.468L41.154,132.459L40.817,135.449L39.424,136.843L36.212,136.764L33,136.684L29,135.527L23.667,135.667L23.667,138.237L27.667,139.319L34.333,140.094L37.667,140.458L39.485,140.667L38.892,144.703L39.613,144.446L40.333,144.19ZM204.667,143.333L204.667,142L203.255,142L203.667,142.667L204.079,143.333L204.667,143.333ZM215,137.964L225,135.794L225.714,134.82L226.427,133.847L226.085,127.667L225.238,123.833L224.392,120L221.957,120L217.171,122L214.333,121.98L209.789,123.459L205.246,124.938L205.716,128.302L206.187,131.666L206.378,134.333L207.28,136.13L208.182,137.928L209.924,138.159L211.667,138.389L213.333,138.177L215,137.964ZM209.604,132.546L208.587,130.578L208.793,128.849L209,127.119L211,126.771L214.333,125.726L217.667,124.681L221.921,124.667L222.393,125.43L222.864,126.192L223.43,131.091L222.548,131.74L221.667,132.389L216.633,134.099L213.628,134.307L210.622,134.514L209.604,132.546ZM48.688,125.908L47.921,124.667L46.709,124.667L47.473,126.659L48.688,125.908ZM48.635,117.822L48.123,116.992L49.441,114.329L50.76,111.667L51.422,105.987L47.514,102.078L44.987,102.392L42.46,102.705L39.667,100.108L37.204,99.653L34.741,99.199L32.993,100.947L31.245,102.694L30.483,107.667L29.223,110.329L27.964,112.992L30.196,114.624L30.765,114.273L31.333,113.921L33,114.963L33.885,115.097L34.771,115.231L35.885,115.716L37,116.201L38.667,116.667L40.333,117.163L44.637,118.161L45.414,119.097L46.191,120.034L48.635,117.822ZM42.167,114.52L40.667,113.796L40.667,110.729L41.492,108.865L42.318,107L43.694,105.544L46.174,105.908L46.75,106.483L47.326,107.059L47.577,110.333L45.181,115.333L43.667,115.243L42.167,114.52ZM34.5,111.54L33.333,111.236L33.18,109.667L33.288,108.333L33.397,107L34.828,103.333L37.17,103.333L38.833,105.337L38.833,108.646L36.636,112L35.667,111.845L34.5,111.54ZM206,119.333L206,117.538L204.957,115.447L203.913,113.355L203.327,111.312L202.741,109.268L204.791,108.022L206.841,106.775L207.587,107.077L208.333,107.378L210.333,111.598L211.224,111.874L212.115,112.149L211.213,104.935L214.729,103.333L215.271,103.333L216.635,106.418L218,109.503L218,111.191L220.12,112.004L220.678,111.66L221.235,111.315L220.105,107.667L218.69,104L217.274,100.333L216.893,99.167L216.511,98L214.83,98L213.15,100.025L209,101.813L207,102.689L205,103.566L204,103.333L204,104.561L200.092,105.419L199.285,106.392L198.478,107.364L200.826,113L201.452,114.362L202.077,115.724L202.224,116.695L202.371,117.667L202.891,118.5L203.412,119.333L206,119.333ZM214.193,116.667L213.844,115.333L212.667,115.333L212.667,117.111L213.111,117.556L213.556,118L214.542,118L214.193,116.667ZM224.767,113.633L224.767,112.367L223.333,111.889L223.333,114.111L224.767,113.633ZM198.359,100.833L197.908,99L195.954,96.968L194,94.937L194,92.742L196.963,90.667L198.667,90.667L201.417,93.417L202.208,93.153L203,92.889L203.036,91L201.407,87.774L202.619,85.509L205.96,86.148L209.435,92.078L211.556,91.667L211.775,91L211.995,90.333L210.497,88.073L209,85.812L206.251,81L203.607,80.61L199.667,83.998L198.931,84L191.667,90.646L190.833,90.656L190,90.667L190,94.012L194,99.533L194,100.723L194.833,101.669L195.667,102.616L198.811,102.667L198.359,100.833ZM56.959,99.613L58.012,98.559L57.358,97.501L60.667,95.017L60.667,91.333L58.333,91.354L57,92.333L55.53,95L52.593,95.436L48.333,92.131L43.333,87.487L43.333,88.047L40.928,86.76L39.094,87.893L38.777,90.053L44.333,93.533L44.778,94.667L46.056,94.667L47.667,96.068L51,98.303L54.333,100.537L55.905,100.667L56.959,99.613ZM63.91,90L64.757,87.333L66.667,87.333L66.688,86.333L72.612,79.737L71.17,78L69.52,78L68.26,79.783L67,81.565L63.805,84.667L62.095,84.667L60,82.571L60,78.899L63.317,75.783L61.837,74L60.406,74L56.792,77.463L54.123,76.616L53.252,74.345L55.768,72.308L58.153,68.667L60,68.667L60,66L56.871,66L52.098,70.988L47.326,75.976L52.624,79.482L53.332,81.712L57,83.904L62.944,90L63.91,90ZM190.627,80.667L195.854,75.333L197.38,75.333L200.543,77.406L200.959,76.734L201.374,76.061L200.522,72.667L199.613,72.667L196.807,70.127L194,67.587L194,66L191.312,66L191.623,70.077L193.333,71.497L193.333,73.042L190.167,76.43L187,79.819L184.788,82.233L182.576,84.648L183.412,86L185.4,86L190.627,80.667ZM177.271,78.667L180.667,77.119L180.667,74.95L182.64,72.641L184.612,70.333L184.667,68.83L186.652,67.182L185.921,66L188.524,66L189.241,64.13L188.444,63.333L185.489,63.333L185.14,64.667L184.792,66L182.667,66L182.667,67.238L180.559,69.346L179.241,68.531L179.667,55.841L177.37,54.363L176.639,55.095L175.908,55.826L175.74,56.966L175.573,58.107L173.667,59.313L174.683,59.333L171.333,64.64L171.333,65.91L168.807,66.712L168.497,69.189L168.186,71.667L168.492,72.21L168.799,72.754L170.019,71.649L171.239,70.545L173.396,66L175.462,66L174.778,72.333L174.425,75L175.478,78.667L177.271,78.667ZM68,71.857L68,71.333L66,71.333L66,72.625L68,71.857ZM86.168,70L94.04,66L96.156,66L95.403,63.667L92.334,55.333L89.585,55.333L86.592,58.121L87.021,60.333L90.847,60.333L91.977,63.388L90.346,66L85.238,66L83.341,64.103L82.961,61.667L81.677,59.667L80.118,55.219L82.603,53.092L85.436,52.659L87.429,50.667L88.511,50.667L89.148,47.333L86.707,47.333L84.333,48.667L81.959,50L79.401,50L75.882,54.613L76.839,59L79.927,66L81.556,66L80.73,66.825L82.584,68.679L85.667,69.915L86.168,70ZM166.236,64.792L166.625,61L167.851,49L167.405,48.513L166.958,48.025L162.801,47.194L161.943,49.895L156.667,55.498L156.667,56.415L154.333,59.05L152.78,61.238L151.226,63.425L151.918,65.227L152.966,65.074L154.013,64.92L155.6,63.333L158.333,63.338L160.561,64.696L162.788,66.054L162.055,67.965L164.253,69.194L165.846,68.583L166.236,64.792ZM160.163,61.333L158.567,59.411L159.669,57.09L160.77,54.77L161.867,54.349L162.965,53.927L164.615,56.184L163.286,58.667L164.047,58.667L162.62,61.333L160.163,61.333ZM108.291,63.225L110.462,62.062L111.876,63.476L113.514,60.416L113.557,55L111.946,47.667L111.159,40.558L110.238,40.204L109.316,39.851L107.348,41.484L107.813,42.236L108.277,42.988L108.589,47L110.044,52.833L109.887,55.49L109.731,58.146L108.344,59.054L106.958,59.963L103,58.925L101.863,55.629L100.725,52.333L100.667,47.267L99.65,45.3L98.632,43.333L95.333,43.333L95.333,45.921L96.82,46.84L96.164,52.667L97.271,52.667L99.48,57.323L98.746,59.236L99.706,60.033L100.667,60.83L100.667,63.885L108.291,63.225ZM148.123,59.324L147.913,55.647L151.333,52.434L151.333,48.933L152.801,47.466L151.061,42.654L146.333,41.26L138.667,40.481L138.565,43L137.904,45.667L137.967,48.333L136.701,52.333L136.535,56.796L136.369,61.258L137.356,62.244L138.84,60.76L139.423,57L139.429,54.837L142.533,53.422L143.64,54.231L144.746,55.04L144.758,61L145.102,62.206L145.447,63.411L148.332,63L148.123,59.324ZM142.463,50.546L140.592,49.864L141,45.708L142.833,44.687L144.667,43.667L148.333,45.709L148.739,49.166L146.571,51.333L144.333,51.228L142.463,50.546ZM120.161,58.766L120.705,56.667L126.571,56.667L128.667,58.762L128.667,60.577L131.5,61.476L132.611,59.678L131.333,58.4L131.333,55.556L130.334,54.556L129.538,51.445L128.742,48.333L127.841,44.758L126.94,41.182L124.412,39.333L122.047,39.333L120.879,41.667L119.201,51.667L118.111,54.333L117.389,57.462L116.667,60.59L116.667,61.957L118.142,61.411L119.617,60.866L120.161,58.766ZM122.784,52.753L121.901,52.194L122.333,47.678L124.84,47.202L125.98,49L126,52.524L124.945,52.929L123.891,53.333L123.667,53.313L122.784,52.753ZM74,52.588L74,50.667L72.745,50.667L71.921,52L72.759,53.355L74,52.588ZM76,49.191L76,48L74,48L74,49.958L76,49.191ZM133,48.646L135,47.354L133.667,47.354L131.667,48.646L133,48.646ZM102.667,40.667L102.667,40.079L101.333,39.255L101.333,40.667L102.667,40.667ZM118.667,38.667L118.667,37.333L117.255,37.333L118.079,38.667L118.667,38.667ZM117.921,36.667L118.745,35.333L117.333,35.333L117.333,36.667L117.921,36.667ZM124.724,33.835L123.978,33.089L123.156,33.917L122.333,34.746L124.724,33.835Z" style="fill:rgb(44,61,234);fill-rule:nonzero;"/>
    </g>
</svg>
